<?xml version="1.0" encoding="utf-8"?>
<!-- Generator: Adobe Illustrator 16.0.0, SVG Export Plug-In . SVG Version: 6.00 Build 0)  -->
<!DOCTYPE svg PUBLIC "-//W3C//DTD SVG 1.1//EN" "http://www.w3.org/Graphics/SVG/1.1/DTD/svg11.dtd">
<svg version="1.1" id="Layer_1" xmlns="http://www.w3.org/2000/svg" xmlns:xlink="http://www.w3.org/1999/xlink" x="0px" y="0px"
	 width="198.01px" height="38.584px" viewBox="0 0 198.01 38.584" enable-background="new 0 0 198.01 38.584" xml:space="preserve">
<g>
	<path fill="#502D7F" d="M17.648,20.297l0.277-1.816l-0.124-0.123c-0.287,0.225-0.646,0.492-1.078,0.801
		c-0.41,0.287-0.883,0.564-1.417,0.83c-0.513,0.248-1.088,0.463-1.725,0.646c-0.615,0.188-1.293,0.279-2.032,0.279
		c-1.212,0-2.341-0.195-3.388-0.586c-1.026-0.392-1.931-0.986-2.711-1.787c-0.76-0.82-1.355-1.848-1.786-3.08
		c-0.432-1.252-0.646-2.73-0.646-4.435c0-1.704,0.215-3.172,0.646-4.403C4.095,5.37,4.69,4.344,5.45,3.543
		c0.78-0.821,1.685-1.428,2.711-1.817c1.047-0.391,2.176-0.585,3.388-0.585c0.739,0,1.417,0.103,2.032,0.308
		c0.616,0.185,1.171,0.421,1.663,0.708c0.493,0.288,0.924,0.586,1.294,0.894c0.369,0.309,0.657,0.585,0.862,0.832l0.185-0.062
		c0.063-0.329,0.145-0.74,0.247-1.232c0.103-0.493,0.236-0.883,0.4-1.171c-0.862-0.39-1.858-0.719-2.988-0.985
		C14.137,0.145,12.905,0,11.55,0C9.846,0,8.285,0.247,6.868,0.739C5.451,1.232,4.229,1.951,3.203,2.896
		c-1.006,0.945-1.797,2.105-2.372,3.48C0.277,7.731,0,9.282,0,11.026c0,1.746,0.277,3.307,0.831,4.683
		c0.575,1.354,1.355,2.504,2.341,3.449c1.007,0.942,2.197,1.651,3.572,2.125c1.377,0.45,2.875,0.678,4.498,0.678
		c0.759,0,1.488-0.063,2.187-0.187c0.699-0.123,1.324-0.258,1.878-0.399c0.575-0.164,1.058-0.338,1.448-0.522
		C17.165,20.647,17.463,20.461,17.648,20.297L17.648,20.297z"/>
	<path fill="#502D7F" d="M22.268,8.378v5.298c0,1.356-0.031,2.69-0.093,4.004c-0.04,1.314-0.092,2.607-0.153,3.881
		c0.985-0.043,1.93-0.063,2.833-0.063c0.924,0,1.879,0,2.865,0c0.944,0,1.889,0,2.833,0c0.944,0,1.89,0.021,2.834,0.063
		c-0.103-0.328-0.154-0.605-0.154-0.832c0-0.246,0.052-0.557,0.154-0.924c-1.54,0.203-2.978,0.326-4.313,0.367
		c-1.334,0.021-2.73,0.031-4.188,0.031c-0.021-1.498-0.041-3.193-0.062-5.082c-0.021-1.91-0.031-4.158-0.031-6.746
		c0-1.354,0.021-2.679,0.062-3.973c0.063-1.314,0.124-2.648,0.186-4.005c-0.268,0.042-0.524,0.083-0.771,0.124
		c-0.246,0.021-0.492,0.03-0.739,0.03c-0.246,0-0.492-0.01-0.739-0.03c-0.246-0.041-0.503-0.082-0.77-0.124
		c0.062,1.356,0.113,2.69,0.153,4.005C22.236,5.699,22.268,7.023,22.268,8.378L22.268,8.378z"/>
	<path fill="#502D7F" d="M35.942,11.026c0,1.746,0.277,3.307,0.832,4.683c0.575,1.354,1.365,2.504,2.372,3.449
		c1.026,0.942,2.248,1.651,3.665,2.125c1.416,0.45,2.967,0.678,4.65,0.678c1.705,0,3.265-0.228,4.682-0.678
		c1.417-0.474,2.628-1.183,3.635-2.125c1.026-0.945,1.816-2.096,2.371-3.449c0.575-1.376,0.862-2.937,0.862-4.683
		c0-1.744-0.287-3.295-0.862-4.65c-0.555-1.375-1.345-2.535-2.371-3.479c-1.007-0.945-2.218-1.664-3.635-2.157
		C50.727,0.247,49.167,0,47.462,0c-1.684,0-3.234,0.247-4.65,0.739c-1.417,0.493-2.639,1.212-3.665,2.157
		C38.14,3.84,37.35,5,36.775,6.375C36.22,7.731,35.942,9.282,35.942,11.026L35.942,11.026z M55.993,11.026
		c0,1.705-0.215,3.183-0.646,4.435c-0.432,1.232-1.037,2.26-1.817,3.08c-0.759,0.801-1.663,1.396-2.71,1.787
		c-1.027,0.391-2.146,0.586-3.357,0.586c-1.191,0-2.31-0.195-3.357-0.586c-1.026-0.392-1.93-0.986-2.71-1.787
		c-0.76-0.82-1.355-1.848-1.786-3.08c-0.432-1.252-0.647-2.73-0.647-4.435c0-1.704,0.216-3.172,0.647-4.403
		c0.431-1.253,1.026-2.279,1.786-3.08c0.78-0.821,1.684-1.428,2.71-1.817c1.048-0.391,2.166-0.585,3.357-0.585
		c1.211,0,2.33,0.194,3.357,0.585c1.047,0.39,1.951,0.996,2.71,1.817c0.78,0.801,1.386,1.827,1.817,3.08
		C55.778,7.854,55.993,9.322,55.993,11.026L55.993,11.026z"/>
	<path fill="#502D7F" d="M68.282,21.562c0.268-0.043,0.606-0.063,1.017-0.063c0.35,0,0.688,0.021,1.017,0.063
		c1.355-3.513,2.772-7.022,4.251-10.536c1.478-3.511,3.018-7.053,4.619-10.626c-0.451,0.104-0.831,0.154-1.14,0.154
		c-0.308,0-0.688-0.051-1.14-0.154c-0.226,0.679-0.503,1.479-0.831,2.403c-0.328,0.924-0.698,1.92-1.109,2.987
		c-0.39,1.067-0.8,2.187-1.231,3.357c-0.431,1.149-0.873,2.289-1.324,3.419c-0.432,1.108-0.862,2.187-1.294,3.234
		c-0.431,1.025-0.831,1.961-1.201,2.803c-0.657-1.561-1.304-3.131-1.94-4.712c-0.637-1.581-1.263-3.142-1.879-4.682
		c-0.596-1.54-1.17-3.049-1.725-4.527c-0.534-1.499-1.026-2.926-1.479-4.282c-0.287,0.042-0.564,0.083-0.831,0.124
		c-0.268,0.021-0.524,0.03-0.771,0.03s-0.503-0.01-0.77-0.03C60.254,0.483,59.977,0.442,59.69,0.4
		c0.738,1.767,1.509,3.636,2.31,5.606c0.821,1.971,1.611,3.9,2.371,5.791c0.78,1.888,1.509,3.685,2.187,5.388
		C67.235,18.891,67.811,20.349,68.282,21.562L68.282,21.562z"/>
	<path fill="#502D7F" d="M82.728,8.348v5.298c0,1.355-0.031,2.689-0.092,4.003c-0.041,1.293-0.093,2.598-0.154,3.913
		c0.944-0.043,1.879-0.063,2.803-0.063c0.924,0,1.858,0,2.803,0c0.945,0,1.868,0,2.772,0c0.924,0,1.848,0.021,2.771,0.063
		c-0.062-0.205-0.093-0.474-0.093-0.802c0-0.145,0-0.299,0-0.463c0.021-0.187,0.052-0.348,0.093-0.491
		c-0.493,0.103-1.078,0.185-1.756,0.245c-0.657,0.041-1.365,0.082-2.125,0.123c-0.739,0.021-1.499,0.031-2.279,0.031
		c-0.76,0-1.479,0-2.156,0c-0.021-0.392-0.04-0.965-0.062-1.725c0-0.76,0-1.725,0-2.895v-1.849v-1.201c0-0.329,0-0.596,0-0.801
		c0.021-0.226,0.031-0.431,0.031-0.615c0.369,0,0.862,0.01,1.479,0.029c0.637,0,1.304,0.011,2.002,0.031
		c0.718,0,1.427,0.021,2.125,0.062c0.719,0.041,1.345,0.093,1.879,0.154c-0.062-0.308-0.093-0.616-0.093-0.924
		c0-0.328,0.031-0.647,0.093-0.955c-0.452,0.041-0.935,0.082-1.447,0.123c-0.493,0.021-1.037,0.052-1.633,0.093
		c-0.596,0.021-1.253,0.041-1.971,0.062c-0.719,0.021-1.53,0.03-2.434,0.03c0-0.39-0.01-0.965-0.031-1.725c0-0.76,0-1.539,0-2.34
		c0-0.76,0.011-1.438,0.031-2.033c0.041-0.596,0.071-1.222,0.092-1.879c1.007,0,1.869,0.021,2.588,0.062
		c0.718,0.021,1.375,0.052,1.971,0.093c0.616,0.041,1.191,0.082,1.725,0.123c0.555,0.041,1.16,0.082,1.817,0.123
		c-0.062-0.308-0.093-0.616-0.093-0.924c0-0.308,0.031-0.616,0.093-0.925c-0.924,0.042-1.837,0.083-2.741,0.124
		c-0.903,0.021-1.816,0.03-2.741,0.03c-0.923,0-1.848-0.01-2.771-0.03c-0.903-0.041-1.817-0.082-2.741-0.124
		c0.062,1.315,0.113,2.629,0.154,3.943C82.696,5.657,82.728,6.992,82.728,8.348L82.728,8.348z"/>
	<path fill="#502D7F" d="M98.128,8.378v5.298c0,1.356-0.031,2.69-0.093,4.004c-0.041,1.314-0.093,2.607-0.153,3.881
		c0.472-0.043,0.975-0.063,1.509-0.063c0.533,0,1.035,0.021,1.508,0.063c-0.062-1.273-0.123-2.566-0.185-3.881
		c-0.041-1.314-0.063-2.648-0.063-4.004v-2.248h1.17c0.658,0.678,1.378,1.509,2.156,2.494c0.801,0.965,1.582,1.94,2.342,2.926
		c0.761,0.986,1.447,1.91,2.063,2.771c0.638,0.862,1.109,1.51,1.418,1.94c0.287-0.043,0.584-0.063,0.894-0.063
		c0.309,0,0.604,0,0.893,0c0.309,0,0.617,0,0.924,0c0.309,0,0.617,0.021,0.924,0.063c-0.287-0.289-0.666-0.709-1.139-1.265
		c-0.473-0.553-0.975-1.16-1.51-1.816c-0.533-0.678-1.088-1.375-1.662-2.094c-0.576-0.74-1.131-1.438-1.664-2.095
		c-0.533-0.678-1.016-1.294-1.447-1.849c-0.432-0.554-0.77-0.985-1.016-1.294c0.596-0.081,1.252-0.245,1.971-0.492
		c0.74-0.267,1.426-0.626,2.064-1.078c0.635-0.472,1.17-1.057,1.602-1.755c0.451-0.719,0.676-1.571,0.676-2.557
		c0-0.924-0.174-1.693-0.522-2.31c-0.328-0.616-0.791-1.109-1.386-1.479c-0.573-0.391-1.254-0.668-2.032-0.832
		c-0.781-0.164-1.603-0.247-2.466-0.247c-0.594,0-1.18,0.031-1.756,0.093c-0.573,0.041-1.157,0.062-1.754,0.062
		c-0.596,0-1.182-0.01-1.758-0.03c-0.574-0.041-1.159-0.082-1.753-0.124c0.061,1.356,0.112,2.69,0.153,4.005
		C98.097,5.699,98.128,7.023,98.128,8.378L98.128,8.378z M100.653,10.134V8.378c0-1.108,0.021-2.217,0.063-3.326
		c0.041-1.108,0.082-2.228,0.123-3.357c0.328-0.041,0.729-0.071,1.201-0.093c0.473-0.04,1.066-0.061,1.785-0.061
		c0.535,0,1.078,0.061,1.633,0.185c0.555,0.103,1.068,0.309,1.541,0.616c0.471,0.308,0.852,0.729,1.139,1.262
		c0.309,0.514,0.463,1.171,0.463,1.972c0,0.924-0.194,1.694-0.586,2.311c-0.369,0.596-0.842,1.077-1.416,1.447
		c-0.576,0.35-1.213,0.596-1.91,0.739c-0.678,0.144-1.334,0.215-1.971,0.215c-0.41,0-0.791-0.01-1.141-0.03
		C101.249,10.236,100.94,10.195,100.653,10.134L100.653,10.134z"/>
	<path fill="#502D7F" d="M128.034,10.688V1.541h2.771c0.801,0,1.52,0.061,2.154,0.185c0.639,0.103,1.17,0.309,1.604,0.616
		c0.453,0.308,0.801,0.738,1.047,1.293c0.248,0.555,0.369,1.273,0.369,2.156c0,1.047-0.186,1.909-0.555,2.587
		c-0.35,0.657-0.813,1.181-1.387,1.57c-0.556,0.37-1.17,0.627-1.849,0.771c-0.678,0.146-1.336,0.216-1.972,0.216
		C129.461,10.935,128.733,10.853,128.034,10.688L128.034,10.688z M125.508,8.378v5.298c0,1.356-0.03,2.69-0.094,4.004
		c-0.039,1.314-0.09,2.607-0.151,3.881c0.473-0.043,0.975-0.063,1.51-0.063c0.533,0,1.035,0.021,1.509,0.063
		c-0.063-1.273-0.123-2.566-0.185-3.881c-0.041-1.314-0.063-2.648-0.063-4.004v-1.694c0.411,0.041,0.813,0.072,1.2,0.093
		c0.392,0,0.822,0,1.293,0c0.74,0,1.582-0.082,2.524-0.247c0.968-0.163,1.869-0.481,2.714-0.954c0.86-0.473,1.58-1.129,2.153-1.972
		c0.597-0.842,0.896-1.939,0.896-3.295c0-0.862-0.125-1.581-0.371-2.156c-0.246-0.596-0.573-1.088-0.983-1.479
		c-0.392-0.39-0.832-0.688-1.326-0.893c-0.49-0.206-0.992-0.359-1.508-0.462c-0.494-0.104-0.965-0.164-1.418-0.186
		c-0.451-0.021-0.83-0.031-1.14-0.031c-0.228,0-0.502,0.011-0.832,0.031c-0.327,0.021-0.678,0.041-1.047,0.062
		c-0.351,0-0.696,0.011-1.047,0.031s-0.646,0.03-0.894,0.03c-0.494,0-0.996-0.01-1.51-0.03c-0.492-0.041-0.986-0.082-1.479-0.124
		c0.063,1.356,0.113,2.69,0.152,4.005C125.478,5.699,125.508,7.023,125.508,8.378L125.508,8.378z"/>
	<path fill="#502D7F" d="M144.295,11.981c0.535,0,1.09,0.011,1.664,0.031s1.129,0.03,1.662,0.03c0.574,0,1.148,0,1.728,0
		c0.573-0.021,1.147-0.041,1.726-0.062l-3.421-7.823L144.295,11.981L144.295,11.981z M157.942,21.562
		c-0.289-0.043-0.566-0.063-0.834-0.063c-0.244,0-0.512,0-0.801,0c-0.287,0-0.563,0-0.83,0c-0.246,0-0.516,0.021-0.803,0.063
		c-0.145-0.474-0.34-1.037-0.586-1.694c-0.244-0.678-0.521-1.375-0.832-2.094c-0.283-0.738-0.584-1.479-0.893-2.217
		c-0.31-0.76-0.597-1.479-0.861-2.157c-0.656-0.021-1.322-0.03-2.004-0.03c-0.676-0.021-1.354-0.031-2.029-0.031
		c-0.639,0-1.266,0.011-1.881,0.031c-0.615,0-1.24,0.01-1.879,0.03c-0.656,1.602-1.252,3.131-1.787,4.588
		c-0.531,1.438-0.934,2.629-1.199,3.575c-0.35-0.043-0.729-0.063-1.141-0.063c-0.41,0-0.791,0.021-1.142,0.063
		c1.664-3.595,3.287-7.167,4.867-10.72c1.58-3.552,3.172-7.166,4.772-10.842h0.586c0.492,1.191,1.025,2.485,1.603,3.882
		c0.573,1.376,1.16,2.771,1.756,4.188c0.595,1.416,1.188,2.823,1.785,4.219s1.149,2.702,1.664,3.913
		c0.532,1.191,1.006,2.258,1.416,3.203C157.325,20.349,157.674,21.069,157.942,21.562L157.942,21.562z"/>
	<path fill="#502D7F" d="M161.483,8.378v5.298c0,1.356-0.031,2.69-0.094,4.004c-0.039,1.314-0.094,2.607-0.152,3.881
		c0.473-0.043,0.975-0.063,1.508-0.063c0.535,0,1.037,0.021,1.51,0.063c-0.063-1.273-0.123-2.566-0.184-3.881
		c-0.041-1.314-0.063-2.648-0.063-4.004v-2.248h1.171c0.655,0.678,1.375,1.509,2.155,2.494c0.801,0.965,1.582,1.94,2.342,2.926
		c0.759,0.986,1.447,1.91,2.063,2.771c0.637,0.862,1.109,1.51,1.418,1.94c0.285-0.043,0.584-0.063,0.893-0.063
		c0.308,0,0.605,0,0.894,0c0.31,0,0.615,0,0.925,0s0.614,0.021,0.924,0.063c-0.287-0.289-0.668-0.709-1.14-1.265
		c-0.473-0.553-0.978-1.16-1.51-1.816c-0.535-0.678-1.088-1.375-1.664-2.094c-0.574-0.74-1.129-1.438-1.662-2.095
		c-0.534-0.678-1.017-1.294-1.446-1.849c-0.433-0.554-0.771-0.985-1.019-1.294c0.596-0.081,1.254-0.245,1.971-0.492
		c0.74-0.267,1.429-0.626,2.064-1.078c0.637-0.472,1.17-1.057,1.602-1.755c0.453-0.719,0.679-1.571,0.679-2.557
		c0-0.924-0.174-1.693-0.521-2.31c-0.328-0.616-0.791-1.109-1.389-1.479c-0.572-0.391-1.252-0.668-2.029-0.832
		c-0.781-0.164-1.604-0.247-2.466-0.247c-0.597,0-1.181,0.031-1.757,0.093c-0.572,0.041-1.159,0.062-1.756,0.062
		s-1.181-0.01-1.754-0.03c-0.576-0.041-1.16-0.082-1.757-0.124c0.062,1.356,0.113,2.69,0.152,4.005
		C161.452,5.699,161.483,7.023,161.483,8.378L161.483,8.378z M164.008,10.134V8.378c0-1.108,0.021-2.217,0.063-3.326
		c0.039-1.108,0.08-2.228,0.121-3.357c0.33-0.041,0.729-0.071,1.201-0.093c0.473-0.04,1.066-0.061,1.787-0.061
		c0.531,0,1.076,0.061,1.633,0.185c0.555,0.103,1.066,0.309,1.539,0.616c0.473,0.308,0.854,0.729,1.141,1.262
		c0.31,0.514,0.461,1.171,0.461,1.972c0,0.924-0.195,1.694-0.584,2.311c-0.369,0.596-0.842,1.077-1.418,1.447
		c-0.574,0.35-1.211,0.596-1.908,0.739c-0.678,0.144-1.336,0.215-1.971,0.215c-0.412,0-0.791-0.01-1.141-0.03
		C164.604,10.236,164.295,10.195,164.008,10.134L164.008,10.134z"/>
	<path fill="#502D7F" d="M180.056,21.562c0.471-0.043,0.976-0.063,1.508-0.063c0.535,0,1.037,0.021,1.511,0.063
		c-0.064-1.272-0.123-2.565-0.185-3.88c-0.043-1.314-0.063-2.648-0.063-4.004v-2.68c0-0.123,0.051-0.185,0.153-0.185
		c0.082,0,0.205,0.082,0.369,0.246c0.327,0.329,0.832,0.903,1.51,1.726c0.697,0.801,1.468,1.713,2.312,2.741
		c0.86,1.006,1.733,2.053,2.617,3.141c0.901,1.09,1.727,2.056,2.463,2.896c0.289-0.043,0.563-0.063,0.832-0.063
		c0.287,0,0.576,0,0.862,0c0.31,0,0.615,0,0.925,0s0.614,0.021,0.924,0.063c-1.746-1.952-3.472-3.894-5.174-5.821
		c-1.685-1.95-3.355-3.86-5.021-5.729c0.555-0.637,1.241-1.376,2.063-2.218c0.842-0.862,1.713-1.735,2.615-2.618
		c0.926-0.883,1.84-1.745,2.742-2.587c0.902-0.842,1.715-1.57,2.436-2.188c-0.248,0.042-0.494,0.083-0.74,0.124
		c-0.246,0.021-0.491,0.03-0.739,0.03c-0.205,0-0.41-0.01-0.615-0.03c-0.205-0.041-0.42-0.082-0.646-0.124
		c-0.719,0.822-1.469,1.674-2.248,2.558c-0.779,0.862-1.572,1.714-2.371,2.556c-0.801,0.842-1.604,1.653-2.402,2.434
		c-0.779,0.78-1.529,1.478-2.25,2.094c-0.205,0.186-0.348,0.277-0.432,0.277c-0.121,0-0.184-0.082-0.184-0.246V8.378
		c0-1.354,0.02-2.679,0.063-3.973c0.063-1.314,0.121-2.648,0.186-4.005c-0.27,0.042-0.523,0.083-0.771,0.124
		c-0.246,0.021-0.494,0.03-0.74,0.03c-0.244,0-0.492-0.01-0.736-0.03c-0.246-0.041-0.506-0.082-0.771-0.124
		c0.063,1.356,0.113,2.69,0.152,4.005c0.063,1.294,0.094,2.618,0.094,3.973v5.298c0,1.356-0.031,2.69-0.094,4.004
		C180.168,18.995,180.116,20.288,180.056,21.562L180.056,21.562z"/>
	<g>
		<path fill="#502D7F" d="M133.271,29.297c-0.244-0.266-0.537-0.463-0.877-0.59c-0.332-0.125-0.694-0.188-1.088-0.188
			c-0.386,0-0.748,0.063-1.086,0.188c-0.335,0.127-0.625,0.324-0.88,0.59c-0.245,0.261-0.438,0.593-0.577,0.998
			c-0.14,0.397-0.209,0.873-0.209,1.427c0,0.551,0.069,1.028,0.209,1.437c0.141,0.397,0.332,0.731,0.577,0.998
			c0.255,0.26,0.545,0.45,0.88,0.577c0.338,0.127,0.7,0.188,1.086,0.188c0.394,0,0.756-0.063,1.088-0.188
			c0.34-0.127,0.633-0.317,0.877-0.577c0.254-0.267,0.449-0.601,0.59-0.998c0.14-0.406,0.209-0.886,0.209-1.437
			c0-0.554-0.069-1.027-0.209-1.427C133.719,29.89,133.524,29.558,133.271,29.297z"/>
		<path fill="#502D7F" d="M86.211,32.03c0.173,0,0.353,0.004,0.538,0.01c0.187,0.008,0.366,0.01,0.539,0.01c0.187,0,0.372,0,0.559,0
			c0.187-0.006,0.372-0.012,0.559-0.02l-1.107-2.533L86.211,32.03z"/>
		<path fill="#502D7F" d="M-0.372,25.286v13.299H198.01V25.286H-0.372z M9.407,28.909c-0.14-0.021-0.3-0.037-0.479-0.051
			c-0.173-0.016-0.355-0.023-0.548-0.029c-0.187-0.014-0.376-0.02-0.569-0.02c-0.186-0.01-0.365-0.012-0.538-0.012
			c-0.021,0.686-0.03,1.373-0.03,2.063v1.718c0,0.438,0.007,0.871,0.021,1.297c0.02,0.426,0.04,0.844,0.06,1.256
			c-0.153-0.014-0.316-0.021-0.489-0.021s-0.336,0.007-0.488,0.021c0.02-0.412,0.036-0.83,0.05-1.256
			c0.021-0.426,0.03-0.856,0.03-1.297V30.86c0-0.688-0.01-1.379-0.03-2.063c-0.173,0-0.356,0.002-0.549,0.012
			c-0.186,0-0.376,0.006-0.568,0.02c-0.187,0.006-0.369,0.016-0.549,0.029c-0.173,0.014-0.329,0.029-0.469,0.051
			c0.033-0.121,0.05-0.227,0.05-0.32c0-0.072-0.017-0.176-0.05-0.309c0.439,0.014,0.868,0.025,1.287,0.039
			c0.419,0.008,0.848,0.012,1.286,0.012c0.439,0,0.868-0.004,1.287-0.012c0.419-0.014,0.848-0.025,1.287-0.039
			c-0.034,0.133-0.05,0.24-0.05,0.318C9.357,28.687,9.373,28.788,9.407,28.909z M19.601,35.131
			c-0.299-0.014-0.599-0.021-0.897-0.021c-0.293,0-0.592,0-0.897,0c-0.307,0-0.608,0-0.908,0c-0.299,0-0.602,0.007-0.907,0.021
			c0.02-0.426,0.036-0.848,0.05-1.266c0.02-0.427,0.03-0.857,0.03-1.298v-1.715c0-0.438-0.011-0.871-0.03-1.297
			c-0.014-0.427-0.03-0.853-0.05-1.277c0.299,0.015,0.595,0.025,0.888,0.039c0.299,0.009,0.599,0.013,0.897,0.013
			c0.3,0,0.595-0.004,0.888-0.013c0.293-0.014,0.589-0.024,0.888-0.039c-0.02,0.101-0.03,0.199-0.03,0.3s0.011,0.198,0.03,0.299
			c-0.213-0.012-0.408-0.024-0.589-0.039c-0.172-0.014-0.358-0.026-0.558-0.039c-0.193-0.014-0.406-0.024-0.639-0.03
			c-0.232-0.015-0.512-0.021-0.838-0.021c-0.007,0.213-0.017,0.416-0.03,0.608c-0.007,0.19-0.01,0.41-0.01,0.658
			c0,0.258,0,0.512,0,0.758c0.007,0.246,0.01,0.433,0.01,0.56c0.293,0,0.556-0.004,0.788-0.011c0.232-0.008,0.446-0.014,0.639-0.021
			c0.192-0.014,0.369-0.021,0.528-0.027c0.166-0.016,0.323-0.025,0.469-0.039c-0.02,0.1-0.03,0.203-0.03,0.309
			c0,0.1,0.011,0.199,0.03,0.299c-0.173-0.02-0.376-0.037-0.608-0.049c-0.226-0.014-0.455-0.021-0.688-0.021
			c-0.226-0.006-0.441-0.01-0.647-0.01c-0.2-0.006-0.359-0.01-0.479-0.01c0,0.061-0.003,0.127-0.01,0.199c0,0.066,0,0.154,0,0.26
			v0.389V33.2c0,0.379,0,0.689,0,0.938c0.007,0.245,0.014,0.432,0.02,0.559c0.22,0,0.453,0,0.698,0c0.253,0,0.499-0.004,0.738-0.01
			c0.246-0.015,0.476-0.026,0.688-0.041c0.22-0.021,0.409-0.047,0.568-0.08c-0.014,0.047-0.023,0.101-0.029,0.16
			c0,0.053,0,0.104,0,0.149C19.571,34.979,19.581,35.065,19.601,35.131z M27.172,33.157c0.14,0.398,0.332,0.732,0.578,0.998
			c0.253,0.26,0.546,0.451,0.878,0.578c0.339,0.127,0.705,0.188,1.097,0.188c0.24,0,0.459-0.027,0.658-0.09
			c0.207-0.063,0.393-0.129,0.559-0.209c0.174-0.086,0.326-0.178,0.459-0.271c0.14-0.1,0.256-0.186,0.35-0.26l0.04,0.041
			l-0.09,0.588c-0.061,0.053-0.156,0.113-0.289,0.18c-0.127,0.063-0.283,0.115-0.47,0.17c-0.179,0.047-0.382,0.092-0.608,0.131
			s-0.462,0.063-0.708,0.063c-0.525,0-1.011-0.074-1.456-0.223c-0.445-0.15-0.831-0.381-1.157-0.688
			c-0.319-0.306-0.571-0.679-0.758-1.117c-0.18-0.444-0.27-0.95-0.27-1.517c0-0.563,0.09-1.067,0.27-1.506
			c0.187-0.446,0.442-0.821,0.769-1.127c0.332-0.308,0.728-0.539,1.187-0.698c0.459-0.16,0.964-0.24,1.516-0.24
			c0.439,0,0.838,0.047,1.197,0.142c0.366,0.086,0.688,0.192,0.968,0.319c-0.054,0.093-0.097,0.22-0.13,0.377
			c-0.033,0.16-0.06,0.293-0.08,0.399l-0.06,0.021c-0.066-0.08-0.159-0.171-0.279-0.271c-0.119-0.1-0.259-0.194-0.419-0.288
			c-0.159-0.095-0.339-0.171-0.539-0.229c-0.199-0.068-0.418-0.101-0.658-0.101c-0.392,0-0.758,0.063-1.097,0.188
			c-0.332,0.127-0.625,0.323-0.878,0.59c-0.246,0.261-0.438,0.593-0.578,0.998c-0.141,0.397-0.21,0.873-0.21,1.426
			C26.962,32.272,27.031,32.75,27.172,33.157z M44.507,33.875c0.021,0.426,0.04,0.844,0.061,1.256
			c-0.153-0.014-0.316-0.021-0.489-0.021s-0.336,0.007-0.488,0.021c0.02-0.412,0.036-0.83,0.05-1.256
			c0.02-0.426,0.03-0.856,0.03-1.297v-0.897c-0.359-0.007-0.709-0.011-1.048-0.011c-0.332-0.006-0.678-0.01-1.037-0.01
			s-0.708,0.004-1.048,0.01c-0.332,0-0.678,0.004-1.037,0.011v0.897c0,0.438,0.007,0.871,0.021,1.297
			c0.02,0.426,0.039,0.844,0.06,1.256c-0.153-0.014-0.316-0.021-0.489-0.021c-0.173,0-0.336,0.007-0.488,0.021
			c0.02-0.412,0.036-0.83,0.05-1.256c0.02-0.426,0.029-0.856,0.029-1.297V30.86c0-0.438-0.01-0.866-0.029-1.284
			c-0.014-0.427-0.03-0.857-0.05-1.298c0.086,0.015,0.169,0.025,0.249,0.039c0.08,0.009,0.16,0.013,0.239,0.013
			c0.08,0,0.16-0.004,0.239-0.013c0.08-0.014,0.163-0.024,0.25-0.039c-0.021,0.438-0.04,0.871-0.06,1.298
			c-0.014,0.418-0.021,0.848-0.021,1.284v0.351c0.359,0.008,0.705,0.015,1.037,0.021c0.34,0.006,0.688,0.012,1.048,0.012
			s0.705-0.006,1.037-0.012c0.339-0.008,0.688-0.014,1.048-0.021V30.86c0-0.438-0.011-0.866-0.03-1.284
			c-0.014-0.427-0.03-0.857-0.05-1.298c0.086,0.015,0.169,0.025,0.249,0.039c0.08,0.009,0.16,0.013,0.239,0.013
			c0.08,0,0.16-0.004,0.239-0.013c0.08-0.014,0.163-0.024,0.25-0.039c-0.021,0.438-0.04,0.871-0.061,1.298
			c-0.013,0.418-0.02,0.848-0.02,1.284v1.718C44.487,33.019,44.494,33.45,44.507,33.875z M57.764,28.938
			c-0.014,0.293-0.03,0.604-0.05,0.938c-0.014,0.332-0.027,0.658-0.04,0.979c-0.014,0.318-0.021,0.574-0.021,0.77
			c0,0.166,0,0.363,0,0.6c0,0.227,0,0.463,0,0.709c0.007,0.244,0.011,0.492,0.011,0.748c0.006,0.244,0.01,0.479,0.01,0.695
			c0.006,0.213,0.01,0.396,0.01,0.561c0,0.146,0,0.256,0,0.33h-0.14c-0.765-0.887-1.579-1.789-2.443-2.715
			c-0.865-0.932-1.729-1.854-2.594-2.771c-0.007,0.186-0.013,0.436-0.02,0.748c-0.008,0.313-0.01,0.738-0.01,1.277
			c0,0.139,0,0.313,0,0.518c0.006,0.207,0.01,0.422,0.01,0.646c0.007,0.229,0.013,0.455,0.02,0.689
			c0.007,0.23,0.014,0.445,0.02,0.646c0.007,0.199,0.014,0.375,0.021,0.527c0.007,0.146,0.014,0.246,0.02,0.299
			c-0.106-0.014-0.223-0.02-0.349-0.02c-0.133,0-0.256,0.006-0.369,0.02c0.013-0.066,0.026-0.189,0.04-0.369
			c0.02-0.178,0.036-0.391,0.05-0.637c0.013-0.254,0.026-0.525,0.04-0.818c0.02-0.293,0.033-0.586,0.04-0.879
			c0.013-0.291,0.022-0.578,0.029-0.857c0.007-0.277,0.01-0.525,0.01-0.746c0-0.641-0.003-1.188-0.01-1.646
			c0-0.455-0.007-0.801-0.02-1.025h0.159c0.406,0.438,0.838,0.912,1.297,1.418c0.466,0.498,0.925,0.994,1.377,1.486
			c0.458,0.482,0.891,0.945,1.296,1.387c0.412,0.432,0.771,0.801,1.077,1.104V32.19c0-0.697-0.007-1.377-0.02-2.035
			c-0.007-0.664-0.026-1.289-0.06-1.875c0.133,0.033,0.246,0.051,0.339,0.051c0.08,0,0.186-0.018,0.319-0.051
			C57.8,28.426,57.783,28.646,57.764,28.938z M66.013,33.875c0.02,0.426,0.04,0.844,0.06,1.256
			c-0.153-0.014-0.316-0.021-0.488-0.021c-0.174,0-0.336,0.007-0.489,0.021c0.02-0.412,0.037-0.83,0.05-1.256
			c0.021-0.426,0.03-0.856,0.03-1.297V30.86c0-0.438-0.01-0.866-0.03-1.284c-0.013-0.427-0.03-0.857-0.05-1.298
			c0.086,0.015,0.17,0.025,0.249,0.039c0.08,0.009,0.16,0.013,0.24,0.013c0.079,0,0.159-0.004,0.239-0.013
			c0.079-0.014,0.162-0.024,0.249-0.039c-0.02,0.438-0.04,0.871-0.06,1.298c-0.014,0.418-0.021,0.848-0.021,1.284v1.718
			C65.992,33.019,65.999,33.45,66.013,33.875z M74.062,33.157c0.14,0.398,0.333,0.732,0.579,0.998
			c0.252,0.26,0.545,0.451,0.877,0.578c0.34,0.127,0.705,0.188,1.098,0.188c0.239,0,0.459-0.027,0.658-0.09
			c0.206-0.063,0.393-0.129,0.559-0.209c0.173-0.086,0.326-0.178,0.459-0.271c0.14-0.1,0.256-0.186,0.349-0.26l0.041,0.041
			l-0.09,0.588c-0.061,0.053-0.157,0.113-0.29,0.18c-0.126,0.063-0.282,0.115-0.469,0.17c-0.18,0.047-0.382,0.092-0.608,0.131
			s-0.462,0.063-0.708,0.063c-0.525,0-1.011-0.074-1.456-0.223c-0.445-0.15-0.831-0.381-1.157-0.688
			c-0.319-0.306-0.572-0.679-0.758-1.117c-0.18-0.444-0.27-0.95-0.27-1.517c0-0.563,0.09-1.067,0.27-1.506
			c0.186-0.446,0.442-0.821,0.768-1.127c0.333-0.308,0.729-0.539,1.188-0.698c0.458-0.16,0.964-0.24,1.516-0.24
			c0.439,0,0.838,0.047,1.197,0.142c0.365,0.086,0.688,0.192,0.968,0.319c-0.054,0.093-0.097,0.22-0.13,0.377
			c-0.033,0.16-0.06,0.293-0.08,0.399l-0.06,0.021c-0.067-0.08-0.16-0.171-0.279-0.271c-0.12-0.1-0.26-0.194-0.419-0.288
			c-0.16-0.095-0.34-0.171-0.539-0.229c-0.199-0.068-0.419-0.101-0.658-0.101c-0.393,0-0.758,0.063-1.098,0.188
			c-0.332,0.127-0.625,0.323-0.877,0.59c-0.246,0.261-0.439,0.593-0.579,0.998c-0.14,0.397-0.209,0.873-0.209,1.426
			C73.853,32.272,73.922,32.75,74.062,33.157z M90.36,35.112c-0.08,0-0.167,0-0.26,0c-0.093,0-0.183,0-0.269,0
			c-0.08,0-0.167,0.006-0.26,0.02c-0.047-0.152-0.109-0.334-0.189-0.547c-0.08-0.221-0.17-0.447-0.27-0.68
			c-0.093-0.238-0.189-0.479-0.289-0.717c-0.1-0.248-0.192-0.479-0.279-0.699c-0.213-0.006-0.429-0.01-0.648-0.01
			c-0.22-0.006-0.438-0.012-0.658-0.012c-0.206,0-0.409,0.006-0.608,0.012c-0.2,0-0.402,0.004-0.608,0.01
			c-0.213,0.52-0.406,1.014-0.578,1.486c-0.174,0.467-0.304,0.852-0.39,1.154c-0.113-0.014-0.236-0.021-0.369-0.021
			c-0.133,0-0.256,0.008-0.369,0.021c0.539-1.162,1.064-2.318,1.576-3.471c0.512-1.151,1.027-2.32,1.546-3.514h0.189
			c0.159,0.389,0.333,0.809,0.519,1.26c0.187,0.443,0.376,0.896,0.569,1.355c0.192,0.459,0.386,0.914,0.578,1.365
			c0.192,0.453,0.372,0.875,0.539,1.268c0.173,0.387,0.325,0.73,0.459,1.037c0.139,0.309,0.252,0.539,0.339,0.697
			C90.536,35.118,90.446,35.112,90.36,35.112z M100.864,35.131c-0.307-0.014-0.611-0.021-0.918-0.021c-0.307,0-0.611,0-0.917,0
			c-0.319,0-0.629,0-0.928,0c-0.293,0-0.599,0.007-0.918,0.021c0.02-0.412,0.037-0.83,0.05-1.256c0.02-0.426,0.03-0.856,0.03-1.297
			V30.86c0-0.438-0.011-0.866-0.03-1.284c-0.013-0.427-0.03-0.857-0.05-1.298c0.087,0.015,0.17,0.025,0.25,0.039
			c0.079,0.009,0.159,0.013,0.238,0.013c0.08,0,0.16-0.004,0.24-0.013c0.08-0.014,0.163-0.024,0.249-0.039
			c-0.021,0.438-0.04,0.871-0.06,1.298c-0.014,0.418-0.02,0.848-0.02,1.284c0,0.841,0.003,1.565,0.01,2.187
			c0.007,0.611,0.013,1.16,0.02,1.646c0.472,0,0.925-0.004,1.357-0.01c0.433-0.014,0.898-0.055,1.396-0.121
			c-0.032,0.121-0.051,0.223-0.051,0.301C100.813,34.937,100.831,35.026,100.864,35.131z M116.624,33.157
			c0.139,0.398,0.332,0.732,0.578,0.998c0.252,0.26,0.545,0.451,0.877,0.578c0.34,0.127,0.705,0.188,1.098,0.188
			c0.24,0,0.459-0.027,0.658-0.09c0.207-0.063,0.393-0.129,0.559-0.209c0.174-0.086,0.326-0.178,0.459-0.271
			c0.142-0.1,0.256-0.186,0.351-0.26l0.039,0.041l-0.089,0.588c-0.061,0.053-0.157,0.113-0.291,0.18
			c-0.125,0.063-0.28,0.115-0.469,0.17c-0.18,0.047-0.383,0.092-0.606,0.131c-0.228,0.039-0.463,0.063-0.709,0.063
			c-0.524,0-1.011-0.074-1.455-0.223c-0.447-0.15-0.832-0.381-1.158-0.688c-0.317-0.306-0.571-0.679-0.758-1.117
			c-0.181-0.444-0.271-0.95-0.271-1.517c0-0.563,0.09-1.067,0.271-1.506c0.187-0.446,0.442-0.821,0.769-1.127
			c0.334-0.308,0.729-0.539,1.188-0.698c0.459-0.16,0.965-0.24,1.516-0.24c0.439,0,0.838,0.047,1.197,0.142
			c0.365,0.086,0.688,0.192,0.969,0.319c-0.055,0.093-0.098,0.22-0.131,0.377c-0.033,0.16-0.059,0.293-0.08,0.399l-0.059,0.021
			c-0.068-0.08-0.16-0.171-0.279-0.271c-0.121-0.1-0.26-0.194-0.42-0.288c-0.16-0.095-0.34-0.171-0.539-0.229
			c-0.199-0.068-0.418-0.101-0.658-0.101c-0.393,0-0.758,0.063-1.098,0.188c-0.332,0.127-0.625,0.323-0.877,0.59
			c-0.246,0.261-0.439,0.593-0.578,0.998c-0.141,0.397-0.211,0.873-0.211,1.426C116.413,32.272,116.483,32.75,116.624,33.157z
			 M134.767,33.237c-0.179,0.438-0.437,0.813-0.769,1.117c-0.326,0.307-0.717,0.535-1.178,0.688
			c-0.459,0.146-0.965,0.221-1.518,0.221c-0.545,0-1.047-0.074-1.506-0.221c-0.459-0.152-0.854-0.381-1.188-0.688
			c-0.325-0.307-0.582-0.68-0.769-1.117c-0.18-0.445-0.271-0.951-0.271-1.516c0-0.565,0.092-1.068,0.271-1.508
			c0.187-0.445,0.44-0.82,0.769-1.127c0.334-0.307,0.729-0.539,1.188-0.697c0.459-0.16,0.961-0.24,1.506-0.24
			c0.553,0,1.059,0.08,1.518,0.24c0.461,0.158,0.852,0.393,1.178,0.697c0.332,0.307,0.59,0.682,0.769,1.127
			c0.188,0.438,0.278,0.941,0.278,1.508C135.045,32.286,134.954,32.792,134.767,33.237z M145.53,35.131
			c-0.307-0.014-0.611-0.021-0.918-0.021s-0.611,0-0.918,0c-0.318,0-0.629,0-0.928,0c-0.293,0-0.6,0.007-0.918,0.021
			c0.021-0.412,0.035-0.83,0.051-1.256c0.02-0.426,0.029-0.856,0.029-1.297V30.86c0-0.438-0.012-0.866-0.029-1.284
			c-0.016-0.427-0.029-0.857-0.051-1.298c0.088,0.015,0.17,0.025,0.25,0.039c0.076,0.009,0.158,0.013,0.236,0.013
			c0.08,0,0.16-0.004,0.24-0.013c0.08-0.014,0.164-0.024,0.25-0.039c-0.021,0.438-0.041,0.871-0.062,1.298
			c-0.015,0.418-0.021,0.848-0.021,1.284c0,0.841,0.002,1.565,0.01,2.187c0.009,0.611,0.015,1.16,0.021,1.646
			c0.474,0,0.927-0.004,1.356-0.01c0.433-0.014,0.896-0.055,1.396-0.121c-0.033,0.121-0.051,0.223-0.051,0.301
			C145.479,34.937,145.497,35.026,145.53,35.131z M156.002,35.131c-0.307-0.014-0.61-0.021-0.918-0.021c-0.309,0-0.61,0-0.918,0
			c-0.317,0-0.627,0-0.93,0c-0.291,0-0.598,0.007-0.918,0.021c0.021-0.412,0.039-0.83,0.053-1.256
			c0.021-0.426,0.027-0.856,0.027-1.297V30.86c0-0.438-0.01-0.866-0.027-1.284c-0.014-0.427-0.029-0.857-0.053-1.298
			c0.09,0.015,0.174,0.025,0.25,0.039c0.08,0.009,0.16,0.013,0.24,0.013s0.16-0.004,0.238-0.013c0.08-0.014,0.164-0.024,0.25-0.039
			c-0.021,0.438-0.039,0.871-0.062,1.298c-0.012,0.418-0.021,0.848-0.021,1.284c0,0.841,0.005,1.565,0.013,2.187
			c0.006,0.611,0.013,1.16,0.021,1.646c0.471,0,0.924-0.004,1.354-0.01c0.433-0.014,0.897-0.055,1.396-0.121
			c-0.033,0.121-0.049,0.223-0.049,0.301C155.954,34.937,155.969,35.026,156.002,35.131z M166.407,35.131
			c-0.301-0.014-0.598-0.021-0.898-0.021c-0.293,0-0.592,0-0.897,0c-0.305,0-0.606,0-0.905,0c-0.302,0-0.603,0.007-0.908,0.021
			c0.021-0.426,0.037-0.848,0.053-1.266c0.02-0.427,0.027-0.857,0.027-1.298v-1.715c0-0.438-0.01-0.871-0.027-1.297
			c-0.016-0.427-0.031-0.853-0.053-1.277c0.301,0.015,0.598,0.025,0.889,0.039c0.301,0.009,0.6,0.013,0.896,0.013
			s0.597-0.004,0.891-0.013c0.291-0.014,0.588-0.024,0.887-0.039c-0.021,0.101-0.029,0.199-0.029,0.3s0.01,0.198,0.029,0.299
			c-0.213-0.012-0.408-0.024-0.588-0.039c-0.174-0.014-0.359-0.026-0.561-0.039c-0.191-0.014-0.404-0.024-0.64-0.03
			c-0.231-0.015-0.512-0.021-0.838-0.021c-0.008,0.213-0.017,0.416-0.028,0.608c-0.009,0.19-0.011,0.41-0.011,0.658
			c0,0.258,0,0.512,0,0.758c0.007,0.246,0.011,0.433,0.011,0.56c0.291,0,0.556-0.004,0.787-0.011
			c0.231-0.008,0.444-0.014,0.639-0.021c0.193-0.014,0.369-0.021,0.529-0.027c0.166-0.016,0.321-0.025,0.469-0.039
			c-0.021,0.1-0.029,0.203-0.029,0.309c0,0.1,0.01,0.199,0.029,0.299c-0.174-0.02-0.377-0.037-0.607-0.049
			c-0.227-0.014-0.455-0.021-0.688-0.021c-0.229-0.006-0.442-0.01-0.647-0.01c-0.199-0.006-0.358-0.01-0.479-0.01
			c0,0.061-0.004,0.127-0.011,0.199c0,0.066,0,0.154,0,0.26v0.389V33.2c0,0.379,0,0.689,0,0.938
			c0.007,0.245,0.013,0.432,0.021,0.559c0.221,0,0.451,0,0.697,0c0.254,0,0.5-0.004,0.737-0.01c0.246-0.015,0.476-0.026,0.688-0.041
			c0.22-0.021,0.408-0.047,0.568-0.08c-0.014,0.047-0.022,0.101-0.031,0.16c0,0.053,0,0.104,0,0.149
			C166.375,34.979,166.388,35.065,166.407,35.131z M174.147,33.038c0.133,0.393,0.326,0.725,0.578,0.998
			c0.26,0.266,0.57,0.473,0.938,0.617c0.373,0.146,0.791,0.221,1.256,0.221c0.142,0,0.287-0.008,0.439-0.021
			c0.154-0.014,0.299-0.033,0.438-0.059c0.146-0.027,0.279-0.061,0.397-0.1c0.127-0.041,0.231-0.088,0.32-0.141
			c0.006-0.199,0.008-0.398,0.008-0.6c0.008-0.199,0.013-0.4,0.013-0.607c0-0.232-0.009-0.467-0.021-0.697
			c-0.009-0.234-0.019-0.455-0.031-0.668c0.166,0.033,0.326,0.049,0.479,0.049c0.072,0,0.146-0.002,0.22-0.01
			c0.071-0.006,0.144-0.021,0.209-0.039c-0.015,0.15-0.022,0.395-0.029,0.729c-0.008,0.324-0.01,0.758-0.01,1.295
			c0,0.133,0,0.27,0,0.41c0.006,0.133,0.01,0.266,0.01,0.398c-0.141,0.053-0.315,0.107-0.528,0.17
			c-0.207,0.053-0.431,0.096-0.668,0.129c-0.23,0.041-0.47,0.074-0.709,0.1c-0.23,0.033-0.445,0.051-0.64,0.051
			c-0.592,0-1.127-0.07-1.604-0.209c-0.474-0.146-0.873-0.369-1.207-0.67c-0.332-0.299-0.588-0.67-0.769-1.117
			c-0.18-0.445-0.271-0.961-0.271-1.545c0-0.563,0.095-1.068,0.279-1.506c0.187-0.447,0.449-0.822,0.789-1.127
			c0.338-0.307,0.748-0.539,1.228-0.699c0.483-0.16,1.021-0.24,1.604-0.24c0.338,0,0.639,0.021,0.896,0.063
			c0.268,0.033,0.5,0.08,0.697,0.143c0.207,0.061,0.387,0.123,0.539,0.188c0.151,0.064,0.289,0.129,0.408,0.188
			c-0.054,0.092-0.104,0.213-0.148,0.359c-0.039,0.146-0.066,0.281-0.078,0.408h-0.121c-0.1-0.119-0.227-0.238-0.379-0.359
			c-0.146-0.119-0.313-0.223-0.498-0.309c-0.182-0.094-0.385-0.166-0.607-0.219c-0.221-0.063-0.457-0.09-0.709-0.09
			c-0.412,0-0.799,0.063-1.156,0.188c-0.354,0.127-0.662,0.324-0.928,0.59c-0.26,0.26-0.467,0.592-0.619,0.998
			c-0.146,0.398-0.219,0.873-0.219,1.426C173.948,32.206,174.015,32.646,174.147,33.038z M190.125,35.131
			c-0.299-0.014-0.6-0.021-0.896-0.021c-0.293,0-0.592,0-0.898,0c-0.306,0-0.608,0-0.908,0c-0.299,0-0.602,0.007-0.907,0.021
			c0.021-0.426,0.036-0.848,0.051-1.266c0.021-0.427,0.029-0.857,0.029-1.298v-1.715c0-0.438-0.011-0.871-0.029-1.297
			c-0.015-0.427-0.028-0.853-0.051-1.277c0.301,0.015,0.596,0.025,0.889,0.039c0.3,0.009,0.601,0.013,0.897,0.013
			c0.3,0,0.595-0.004,0.888-0.013c0.293-0.014,0.588-0.024,0.888-0.039c-0.021,0.101-0.029,0.199-0.029,0.3s0.012,0.198,0.029,0.299
			c-0.211-0.012-0.408-0.024-0.589-0.039c-0.172-0.014-0.358-0.026-0.559-0.039c-0.193-0.014-0.404-0.024-0.64-0.03
			c-0.231-0.015-0.512-0.021-0.838-0.021c-0.006,0.213-0.016,0.416-0.029,0.608c-0.008,0.19-0.01,0.41-0.01,0.658
			c0,0.258,0,0.512,0,0.758c0.006,0.246,0.01,0.433,0.01,0.56c0.293,0,0.556-0.004,0.789-0.011c0.232-0.008,0.445-0.014,0.638-0.021
			c0.192-0.014,0.368-0.021,0.528-0.027c0.166-0.016,0.322-0.025,0.47-0.039c-0.021,0.1-0.029,0.203-0.029,0.309
			c0,0.1,0.011,0.199,0.029,0.299c-0.173-0.02-0.375-0.037-0.609-0.049c-0.225-0.014-0.454-0.021-0.688-0.021
			c-0.227-0.006-0.44-0.01-0.647-0.01c-0.198-0.006-0.358-0.01-0.479-0.01c0,0.061-0.004,0.127-0.01,0.199c0,0.066,0,0.154,0,0.26
			v0.389V33.2c0,0.379,0,0.689,0,0.938c0.006,0.245,0.014,0.432,0.021,0.559c0.221,0,0.452,0,0.698,0
			c0.252,0,0.498-0.004,0.738-0.01c0.244-0.015,0.476-0.026,0.688-0.041c0.219-0.021,0.409-0.047,0.567-0.08
			c-0.014,0.047-0.022,0.101-0.028,0.16c0,0.053,0,0.104,0,0.149C190.097,34.979,190.106,35.065,190.125,35.131z"/>
	</g>
</g>
<rect x="204.004" y="0.398" fill="#FFFFFF" width="40.5" height="7.644"/>
<rect x="204.004" y="14.981" fill="#FFFFFF" width="40.5" height="7.644"/>
<rect x="204.004" y="28.94" fill="#FFFFFF" width="40.5" height="7.644"/>
</svg>
